<?xml version="1.0" standalone="no"?>
<!DOCTYPE svg PUBLIC "-//W3C//DTD SVG 20010904//EN"
 "http://www.w3.org/TR/2001/REC-SVG-20010904/DTD/svg10.dtd">
<svg version="1.0" xmlns="http://www.w3.org/2000/svg"
 width="790.000000pt" height="790.000000pt" viewBox="0 0 790.000000 790.000000"
 preserveAspectRatio="xMidYMid meet">
<metadata>
Created by potrace 1.14, written by Peter Selinger 2001-2017
</metadata>
<g transform="translate(0.000000,790.000000) scale(0.100000,-0.100000)"
fill="#000000" stroke="none">
<path d="M6010 7850 c-13 -11 -30 -20 -39 -20 -19 0 -131 -116 -131 -135 0
-19 -25 -31 -83 -39 -57 -9 -100 -36 -162 -102 -36 -39 -45 -56 -45 -85 0 -25
-9 -45 -31 -70 -43 -48 -80 -104 -114 -174 -27 -56 -29 -67 -29 -185 0 -112 2
-130 23 -170 29 -55 72 -102 128 -138 24 -15 43 -31 43 -36 0 -4 -13 -28 -30
-53 -16 -24 -30 -49 -30 -56 0 -7 -10 -28 -22 -47 -19 -30 -23 -53 -26 -152
-4 -112 -3 -119 24 -173 31 -61 114 -154 154 -171 14 -6 46 -21 73 -33 90 -40
254 -22 374 42 38 20 88 71 109 110 20 37 42 32 68 -14 35 -62 58 -92 118
-156 l59 -62 -28 -43 c-15 -24 -29 -45 -31 -48 -2 -2 -14 10 -27 27 -14 17
-36 34 -51 37 -14 4 -39 16 -55 28 -25 19 -42 21 -153 22 -111 1 -127 -1 -153
-20 -15 -11 -39 -24 -53 -27 -24 -6 -130 -97 -130 -112 0 -4 -9 -19 -19 -34
-11 -15 -24 -49 -29 -76 -6 -28 -16 -70 -22 -95 -7 -25 -10 -72 -7 -106 6 -77
-3 -94 -51 -94 -20 0 -62 -9 -92 -21 l-55 -21 -20 26 c-17 21 -29 26 -69 26
-39 0 -53 -5 -77 -29 -34 -35 -38 -74 -9 -111 11 -14 20 -30 20 -36 0 -6 21
-28 46 -50 119 -100 125 -106 122 -133 -3 -24 -8 -26 -53 -29 -31 -2 -61 2
-80 12 -16 8 -46 22 -65 31 -45 20 -149 84 -178 110 -13 11 -66 63 -119 115
l-97 95 116 6 c77 5 126 12 145 23 37 20 177 66 204 66 36 0 59 19 59 48 0 44
-19 98 -40 117 -29 26 -25 39 19 63 53 30 84 28 125 -9 40 -35 66 -33 93 7 21
32 14 165 -10 192 -9 10 -20 33 -23 51 -7 33 -104 141 -126 141 -5 0 -21 9
-34 19 -14 11 -42 22 -64 26 -48 8 -49 15 -14 98 29 69 30 152 2 184 -9 10
-19 29 -23 43 -27 90 -179 171 -239 127 -14 -10 -16 -26 -14 -97 3 -71 6 -85
21 -88 15 -3 17 5 17 57 0 73 12 78 55 23 30 -37 30 -38 29 -155 -1 -104 -3
-120 -21 -140 -12 -12 -24 -37 -28 -54 -10 -49 -56 -83 -113 -83 -26 0 -67 -5
-92 -11 -45 -10 -90 -5 -90 10 0 4 11 20 24 33 13 14 26 45 30 67 5 34 13 46
42 63 38 23 35 35 -10 40 -22 2 -32 11 -40 33 -19 50 -50 95 -71 101 -11 4
-27 13 -36 21 -10 8 -46 19 -80 24 -283 45 -292 45 -287 23 2 -13 15 -21 40
-25 44 -7 90 -54 81 -84 -8 -25 -8 -25 1 -109 l8 -69 -79 5 c-88 6 -171 40
-197 81 -16 24 -23 112 -12 139 6 13 2 20 -18 28 -16 6 -26 17 -26 30 0 17 7
20 53 22 28 1 63 2 77 2 32 1 36 19 6 27 -13 4 -88 7 -167 7 -79 0 -166 5
-194 11 -35 7 -67 7 -105 -1 -91 -18 -146 9 -85 42 14 7 25 19 25 27 0 8 13
13 38 13 51 0 71 14 54 37 -25 37 -25 49 2 122 16 42 29 93 30 114 2 59 39 70
141 43 28 -7 55 -11 61 -9 8 3 11 28 9 74 -2 60 -6 73 -28 93 -22 20 -28 22
-38 10 -16 -19 -36 -18 -66 6 -14 11 -34 20 -44 20 -10 0 -23 9 -29 20 -13 23
-47 26 -76 6 -11 -8 -53 -18 -92 -22 -67 -6 -75 -5 -97 16 -22 21 -25 21 -31
6 -4 -10 1 -28 13 -44 26 -36 34 -59 27 -77 -9 -22 -21 -19 -64 15 -45 36 -51
36 -68 10 -16 -27 -32 -17 -32 20 0 19 -7 33 -19 40 -11 5 -23 19 -26 30 -4
14 -15 20 -34 20 -32 0 -45 -13 -54 -50 -10 -41 2 -67 45 -95 34 -23 46 -25
91 -20 50 6 55 4 132 -47 44 -28 83 -57 87 -63 4 -5 8 14 8 44 l0 54 41 -6
c23 -3 47 -11 53 -17 6 -6 11 -44 11 -88 0 -61 -5 -87 -24 -127 -32 -63 -67
-94 -108 -95 -26 0 -36 -6 -49 -31 -17 -34 -9 -48 27 -49 8 0 24 -6 34 -14 18
-13 18 -14 -3 -25 -11 -6 -60 -11 -108 -11 -60 0 -92 -4 -103 -14 -11 -9 -62
-17 -153 -23 -111 -7 -141 -13 -158 -28 -14 -12 -42 -20 -88 -24 -75 -7 -85
-22 -23 -34 25 -5 48 -18 61 -34 27 -35 26 -40 -12 -51 -45 -13 -123 -57 -122
-68 0 -5 13 -13 28 -19 24 -8 31 -6 46 13 14 17 29 22 64 22 39 0 46 -3 46
-20 0 -13 -9 -22 -27 -26 -16 -3 -32 -7 -38 -8 -5 -2 10 -9 35 -17 27 -8 45
-20 45 -29 0 -12 -16 -15 -88 -15 -77 0 -90 -3 -105 -21 -29 -37 -50 -37 -83
-2 -24 27 -29 41 -29 85 0 50 -2 54 -39 77 -94 60 -114 155 -53 255 26 42 30
56 20 63 -22 15 -142 1 -184 -21 -21 -12 -44 -21 -50 -21 -15 0 -114 -100
-114 -115 0 -7 -10 -24 -21 -39 -12 -15 -28 -59 -35 -98 -11 -59 -11 -79 1
-130 7 -32 21 -70 29 -83 9 -13 12 -26 7 -30 -5 -3 -47 -7 -92 -10 -54 -3 -87
-10 -99 -20 -9 -8 -32 -18 -50 -22 -24 -4 -54 -27 -101 -74 -62 -63 -67 -72
-84 -144 -16 -66 -16 -78 -4 -86 21 -13 44 -11 82 7 30 15 38 15 87 0 29 -9
62 -25 72 -36 10 -11 28 -20 38 -20 11 0 27 -11 36 -25 14 -21 14 -30 4 -55
-7 -17 -18 -34 -24 -38 -14 -9 -76 -93 -76 -103 0 -14 65 -69 81 -69 9 0 29
-10 45 -22 25 -20 42 -23 146 -26 110 -3 119 -2 161 22 47 28 72 32 82 16 12
-19 -222 -240 -254 -240 -5 0 -21 -10 -37 -22 -50 -40 -147 -70 -209 -66 -60
4 -61 19 -2 36 65 18 77 45 48 105 -32 67 -85 104 -176 122 -43 9 -83 14 -91
11 -28 -11 -44 23 -44 92 0 60 -29 184 -51 222 -5 8 -16 29 -24 46 -16 35
-128 143 -165 160 -115 52 -112 52 -265 57 -82 2 -156 2 -162 0 -7 -3 -13 -13
-13 -23 0 -26 -15 -33 -30 -15 -11 13 -7 21 21 48 46 45 98 151 101 206 2 25
8 46 13 48 6 2 20 -19 33 -47 12 -27 33 -62 47 -78 38 -46 134 -98 214 -118
70 -17 76 -17 145 1 83 21 160 78 183 135 8 19 22 43 31 54 14 15 17 42 16
165 l0 146 -42 87 c-23 48 -42 99 -42 114 0 16 15 45 38 73 46 57 92 124 92
136 0 5 8 17 17 28 46 49 44 271 -2 338 -14 19 -25 39 -25 44 0 4 -15 26 -33
49 -50 60 -87 123 -87 145 0 11 -8 27 -17 36 -10 8 -34 31 -53 49 -24 23 -65
44 -129 67 -80 28 -97 38 -114 66 -24 41 -93 83 -137 83 -19 0 -38 7 -45 17
-12 16 -84 21 -106 7 -23 -14 -4 -24 45 -24 38 0 60 -6 79 -20 14 -11 34 -20
46 -20 21 0 44 -20 88 -78 25 -32 25 -33 7 -53 -11 -12 -29 -25 -41 -30 -12
-4 -23 -18 -25 -31 -3 -21 -8 -23 -64 -23 -55 0 -65 -3 -105 -36 -24 -20 -59
-44 -77 -53 -39 -20 -34 -33 15 -42 23 -4 37 -13 40 -25 4 -13 14 -19 34 -19
39 0 38 -28 -1 -41 -17 -6 -30 -15 -30 -20 0 -6 -16 -17 -36 -25 -19 -8 -33
-20 -31 -27 6 -18 57 -10 79 13 10 11 25 20 33 20 8 0 19 9 25 20 6 11 21 20
34 20 19 0 23 4 19 20 -3 11 -14 20 -24 20 -10 0 -26 11 -35 26 -9 14 -22 23
-29 20 -6 -2 -18 0 -26 5 -11 7 -5 16 26 43 47 40 92 53 113 32 22 -21 8 -44
-29 -48 -40 -4 -49 -23 -14 -32 39 -10 52 -47 31 -90 -17 -36 -69 -86 -89 -86
-7 0 -18 -9 -25 -20 -8 -14 -23 -20 -47 -20 -24 0 -37 6 -45 20 -7 12 -21 20
-38 20 -16 0 -32 -8 -40 -20 -16 -26 -66 -26 -91 -1 -10 10 -28 22 -38 25 -11
3 -51 38 -91 77 -55 55 -72 78 -72 100 0 38 -9 59 -26 59 -10 0 -14 -13 -14
-46 0 -37 4 -47 20 -51 11 -3 20 -10 20 -17 1 -30 119 -166 145 -166 4 0 19
-8 33 -19 22 -14 53 -19 152 -24 121 -5 126 -5 170 21 25 14 48 31 52 38 4 6
23 23 42 38 l35 26 45 -39 c50 -43 102 -56 207 -49 l54 3 3 -81 c2 -70 0 -83
-18 -99 -11 -10 -20 -24 -20 -31 0 -17 -110 -114 -138 -121 -13 -3 -44 4 -72
16 -44 19 -67 21 -240 21 -166 0 -196 -2 -228 -19 -20 -10 -53 -21 -73 -25
-21 -4 -42 -13 -49 -21 -7 -8 -21 -15 -31 -15 -10 0 -21 -5 -24 -10 -4 -6 -25
-23 -48 -37 -47 -29 -167 -147 -167 -163 0 -5 -7 -18 -16 -27 -24 -28 -61 -89
-69 -114 -4 -13 -13 -31 -20 -39 -7 -8 -18 -33 -24 -55 -6 -22 -18 -49 -26
-59 -8 -11 -15 -36 -15 -57 0 -20 -9 -56 -20 -80 -18 -40 -20 -67 -20 -292 0
-222 2 -252 19 -285 10 -20 21 -50 25 -66 4 -16 16 -41 27 -54 10 -14 19 -29
19 -34 0 -5 26 -43 58 -85 31 -42 64 -87 73 -100 9 -13 33 -39 53 -58 62 -57
42 -97 -35 -70 -23 8 -71 15 -108 15 -57 -1 -70 -4 -97 -28 -37 -32 -58 -68
-50 -87 2 -7 19 -16 37 -20 32 -7 86 -39 101 -60 4 -5 8 -20 8 -31 0 -32 45
-107 80 -132 16 -12 43 -25 59 -28 37 -8 43 -23 35 -86 -5 -34 -14 -57 -31
-73 -18 -16 -23 -28 -18 -44 11 -36 56 -51 148 -51 77 0 88 3 123 29 22 15 48
40 57 54 9 15 31 34 49 43 27 14 39 14 87 4 31 -6 81 -27 111 -46 30 -18 69
-40 86 -48 17 -8 35 -19 38 -25 4 -6 15 -11 24 -11 10 0 38 -11 64 -25 46 -24
53 -25 247 -25 112 0 202 -4 206 -9 6 -10 -9 -16 -70 -26 -22 -4 -50 -13 -63
-21 -13 -8 -46 -18 -75 -21 -29 -3 -83 -14 -122 -24 -44 -12 -103 -19 -159
-19 -83 0 -93 2 -138 31 -49 32 -53 39 -62 118 -2 24 -10 48 -18 52 -7 5 -40
9 -72 9 -76 0 -131 -26 -177 -83 -34 -41 -34 -43 -35 -147 -2 -117 4 -109 -92
-136 -35 -10 -66 -24 -71 -31 -4 -8 -38 -45 -75 -82 -60 -62 -73 -70 -116 -76
-27 -4 -54 -13 -60 -20 -7 -8 -26 -19 -43 -25 -33 -11 -87 -76 -87 -104 0 -10
9 -16 23 -16 21 0 101 -53 163 -107 28 -24 105 -63 125 -63 8 0 22 -6 31 -12
14 -11 15 -26 6 -122 -7 -79 -7 -111 2 -120 7 -7 61 -11 158 -11 132 0 147 -2
150 -17 2 -12 -3 -18 -13 -18 -9 0 -29 -8 -43 -19 -15 -10 -37 -22 -49 -25
-13 -4 -23 -14 -23 -21 0 -8 -12 -18 -27 -21 -15 -4 -37 -19 -49 -33 -13 -14
-55 -60 -93 -101 -39 -41 -71 -82 -71 -91 0 -9 -9 -24 -20 -34 -11 -10 -20
-24 -20 -30 0 -7 -8 -23 -19 -36 -10 -13 -21 -40 -25 -61 -4 -20 -13 -38 -21
-41 -7 -3 -17 -27 -21 -54 -3 -26 -14 -56 -23 -67 -13 -15 -17 -50 -19 -214
-3 -182 -2 -197 17 -222 11 -15 24 -46 31 -69 6 -22 15 -41 19 -41 5 0 11 -13
14 -30 4 -16 16 -38 27 -47 11 -10 20 -24 20 -33 0 -8 9 -28 20 -45 11 -16 20
-37 20 -46 0 -8 11 -30 25 -49 14 -19 25 -46 25 -60 0 -15 9 -35 20 -45 17
-16 20 -31 20 -112 0 -84 -2 -93 -19 -93 -12 0 -20 9 -24 28 -4 18 -18 33 -41
46 -32 17 -40 17 -81 6 -55 -16 -135 -100 -135 -144 0 -14 -9 -35 -20 -46 -47
-47 -14 -145 85 -251 l55 -60 -41 -42 c-84 -87 -82 -84 -75 -122 6 -30 10 -34
22 -25 8 7 14 24 14 37 0 17 15 39 45 67 25 24 45 48 45 54 0 6 10 12 23 14
14 2 23 11 25 25 2 16 -12 34 -61 73 -46 36 -71 66 -88 102 -27 58 -29 119 -5
143 9 9 16 25 16 35 0 26 54 80 92 91 32 9 68 -3 68 -23 0 -11 -35 -84 -65
-138 -25 -43 -18 -83 23 -134 41 -51 71 -62 153 -54 62 6 83 23 54 44 -15 12
-34 14 -75 10 -53 -6 -57 -5 -88 27 -25 26 -32 40 -27 58 9 35 39 68 74 80 19
7 41 29 60 58 28 43 31 55 31 129 0 70 -3 85 -20 99 -13 11 -20 30 -20 53 0
19 -8 51 -19 70 -10 19 -22 46 -26 58 -4 13 -16 33 -26 43 -10 10 -19 27 -19
38 0 10 -6 24 -14 30 -8 7 -18 26 -21 42 -4 16 -15 34 -26 39 -12 7 -19 21
-19 39 0 16 -9 40 -20 54 -18 23 -20 40 -20 221 0 177 2 201 20 236 11 22 20
53 20 69 0 17 8 38 19 48 10 10 22 33 26 50 3 18 11 35 16 39 5 3 16 21 24 40
8 19 21 37 30 40 8 3 15 12 15 20 0 25 58 100 128 167 19 17 52 24 52 10 0 -5
-9 -21 -20 -38 -11 -16 -33 -50 -50 -75 -16 -25 -30 -50 -30 -56 0 -6 -8 -22
-18 -35 -66 -85 -97 -333 -69 -544 15 -111 46 -216 66 -223 7 -2 17 -18 25
-35 19 -47 94 -119 153 -150 75 -38 179 -38 253 0 28 14 56 35 61 45 6 11 19
28 30 39 15 15 19 33 19 87 0 77 -2 82 -53 116 -50 34 -69 33 -116 -9 -41 -37
-75 -45 -85 -19 -3 9 -6 46 -6 83 0 64 1 68 38 104 35 34 43 37 94 37 31 0 60
-5 63 -10 8 -14 75 -41 85 -35 4 2 10 28 14 57 14 116 73 270 111 290 11 6 25
18 30 25 7 9 23 13 40 11 l30 -3 0 -86 c1 -77 4 -91 28 -128 15 -22 31 -41 36
-41 13 0 31 -49 31 -85 0 -24 5 -35 15 -35 10 0 15 10 15 33 0 19 12 50 30 76
17 24 30 48 30 53 0 5 14 8 32 6 l32 -3 2 -235 c1 -129 3 -251 3 -270 0 -45
-29 -88 -124 -179 l-74 -72 -59 7 c-49 5 -60 3 -65 -10 -7 -19 18 -46 42 -46
10 0 30 -9 44 -20 14 -11 34 -20 45 -20 10 0 27 -9 37 -20 10 -11 25 -20 33
-20 8 0 35 -22 61 -48 59 -62 78 -70 85 -34 3 15 4 137 2 272 -3 204 -1 249
12 271 l15 26 411 -3 c226 -2 432 -4 459 -4 l47 0 -21 -21 c-12 -12 -36 -25
-55 -31 -19 -5 -34 -13 -34 -18 0 -6 -10 -20 -22 -32 -27 -27 -40 -97 -29
-150 10 -45 45 -80 127 -128 29 -17 55 -37 58 -45 3 -8 13 -15 22 -15 9 0 31
-9 48 -19 28 -18 34 -18 56 -6 14 8 35 19 47 24 12 6 27 19 33 31 13 25 45 26
90 1 19 -11 49 -26 66 -34 17 -8 35 -20 38 -26 4 -6 16 -11 26 -11 11 0 24 -9
29 -19 6 -10 32 -33 58 -50 64 -42 86 -59 136 -107 56 -54 112 -72 155 -50 39
20 47 56 38 175 -13 165 11 180 121 73 88 -86 133 -171 133 -251 0 -37 -6 -65
-17 -81 -9 -13 -20 -48 -24 -78 -4 -30 -15 -62 -24 -72 -9 -9 -20 -41 -24 -71
-5 -29 -14 -55 -20 -57 -5 -2 -13 -20 -17 -40 -4 -20 -15 -43 -26 -50 -10 -7
-18 -19 -18 -27 0 -8 -10 -26 -23 -41 -23 -26 -27 -27 -149 -30 -82 -2 -138
-8 -161 -17 -19 -9 -70 -18 -113 -22 -44 -4 -91 -14 -106 -21 -15 -8 -48 -17
-74 -21 -29 -4 -50 -13 -57 -24 -7 -11 -23 -19 -38 -19 -14 0 -38 -9 -52 -20
-14 -11 -30 -20 -35 -20 -35 0 -212 -189 -212 -227 0 -10 -8 -34 -19 -53 -10
-19 -21 -49 -25 -67 -4 -17 -13 -33 -19 -36 -13 -5 -117 7 -207 23 -30 5 -153
13 -272 16 l-218 7 -46 44 c-25 25 -50 59 -55 76 -5 18 -9 133 -10 257 0 221
-7 292 -23 242 -4 -13 -7 -134 -5 -270 2 -219 4 -251 21 -280 10 -18 18 -44
18 -57 0 -31 -49 -125 -66 -125 -7 0 -15 18 -19 43 -4 23 -13 49 -20 57 -8 10
-14 57 -17 131 -3 87 -8 121 -21 139 -14 20 -17 49 -17 167 0 142 -10 198 -33
191 -8 -3 -13 -31 -15 -84 -3 -110 -6 -119 -56 -148 -84 -49 -99 -36 -107 94
-5 90 -8 102 -32 124 -34 32 -67 98 -67 136 0 19 -5 30 -14 30 -9 0 -15 16
-19 47 -3 26 -12 52 -20 58 -8 5 -18 25 -21 42 -4 18 -15 35 -26 38 -10 3 -20
19 -24 36 -7 35 -26 35 -41 1 -15 -34 -35 -27 -35 11 0 21 -8 41 -20 52 -11
10 -20 22 -20 26 0 16 -91 128 -120 149 -17 12 -30 26 -30 32 0 6 -8 17 -17
24 -10 7 -15 16 -11 20 5 4 16 0 26 -9 10 -10 27 -17 36 -17 10 0 31 -11 48
-25 16 -14 37 -25 47 -25 10 0 26 -9 36 -20 10 -11 28 -20 41 -20 13 0 28 -9
34 -19 5 -11 24 -22 41 -26 17 -4 40 -16 50 -26 10 -10 28 -19 39 -19 11 0 20
-4 20 -9 0 -10 85 -71 98 -71 4 0 30 -28 57 -62 28 -33 63 -75 78 -91 16 -17
33 -42 38 -55 9 -23 11 -24 25 -10 13 12 14 20 5 37 -7 11 -16 21 -21 21 -4 0
-11 12 -15 27 -6 28 -91 124 -135 153 -32 21 -91 65 -119 90 -13 11 -32 20
-42 20 -10 0 -23 9 -29 19 -5 11 -24 23 -42 26 -18 4 -41 16 -51 26 -10 11
-28 19 -40 19 -12 0 -28 9 -35 20 -7 11 -23 20 -36 20 -14 0 -28 5 -32 11 -3
6 -22 17 -40 25 -19 8 -34 18 -34 22 0 4 -16 20 -36 35 -33 27 -37 28 -53 13
-17 -16 -21 -15 -51 15 -17 18 -36 43 -41 56 -5 12 -13 23 -18 23 -16 0 -20
-27 -6 -51 8 -13 21 -37 29 -54 9 -16 20 -37 25 -45 23 -37 51 -109 57 -150 4
-25 16 -62 27 -83 27 -53 21 -204 -12 -257 -11 -19 -21 -40 -21 -47 0 -13 -56
-99 -71 -108 -14 -9 -11 -45 4 -45 23 0 126 128 127 158 0 7 8 25 18 39 23 37
22 242 -2 288 -18 34 -20 51 -7 59 9 6 111 -93 111 -109 0 -5 8 -15 19 -22 10
-6 22 -28 25 -47 4 -22 13 -36 21 -36 10 0 15 -10 15 -29 0 -57 13 -122 24
-118 6 2 15 32 21 67 12 75 30 87 45 32 5 -22 17 -45 25 -52 8 -7 15 -20 15
-29 0 -9 9 -33 20 -54 26 -48 25 -81 -5 -142 -14 -27 -25 -56 -25 -62 0 -7 -5
-13 -10 -13 -6 0 -16 -12 -22 -27 -7 -16 -21 -39 -31 -53 -13 -18 -18 -38 -16
-78 4 -76 -12 -82 -112 -39 -27 12 -43 30 -67 77 -38 71 -38 79 -11 113 25 33
36 92 20 111 -19 23 -40 8 -47 -32 -3 -21 -13 -57 -21 -82 -8 -24 -12 -59 -9
-76 5 -24 1 -37 -17 -56 -30 -33 -59 -48 -91 -48 -14 0 -28 -5 -31 -10 -3 -6
-26 -15 -50 -21 -24 -6 -51 -20 -61 -30 -9 -10 -25 -19 -36 -19 -21 0 -21 -1
-22 -105 -1 -79 -1 -80 -26 -77 -15 1 -41 20 -63 45 -21 23 -45 49 -52 58 -8
8 -19 38 -26 67 -15 72 -39 71 -39 -1 0 -41 5 -58 20 -72 11 -10 20 -22 20
-27 0 -17 74 -98 112 -123 85 -56 125 -23 114 93 -7 62 -6 64 28 98 19 19 44
34 58 34 12 0 37 9 53 20 17 11 42 20 56 20 15 0 38 9 52 20 14 11 29 20 34
20 4 0 35 -18 68 -40 50 -33 68 -40 111 -40 38 0 55 5 69 20 10 11 26 22 36
25 23 8 25 38 4 55 -22 18 -19 73 5 95 11 10 20 23 20 30 0 7 9 20 20 30 11
10 20 24 20 31 0 20 17 26 39 15 29 -16 44 -75 42 -163 -1 -73 1 -79 22 -87
13 -5 29 -16 36 -25 17 -20 75 -21 91 -1 7 8 23 15 35 15 19 0 28 -12 49 -65
21 -52 26 -82 26 -148 0 -64 4 -89 20 -114 21 -35 27 -102 15 -170 -12 -68 12
-66 85 5 33 33 60 67 60 75 0 9 10 19 23 23 31 12 502 4 540 -8 19 -6 240 -13
519 -17 439 -6 489 -8 506 -24 10 -9 23 -17 28 -17 13 0 74 -63 74 -76 0 -6
14 -23 31 -40 30 -28 31 -28 45 -10 8 11 14 27 14 36 0 21 55 73 105 98 50 25
116 30 480 38 159 3 293 8 298 11 4 2 171 8 372 11 l364 7 26 25 27 25 22 -27
c12 -16 25 -28 28 -28 9 0 158 198 158 210 0 5 8 14 19 19 10 6 22 26 25 45 4
20 11 38 16 41 11 7 82 -21 90 -36 4 -5 29 -12 57 -16 46 -5 56 -2 102 27 54
35 57 40 41 70 -36 68 -29 203 14 247 11 12 31 35 44 52 13 17 27 31 32 31 20
0 53 -78 59 -140 l6 -65 62 -3 c64 -3 84 5 149 61 16 13 27 15 46 8 13 -5 62
-7 109 -4 78 5 87 3 132 -22 27 -15 53 -38 58 -52 10 -28 29 -22 29 10 0 28
-35 86 -58 94 -9 4 -22 14 -29 22 -9 13 -32 16 -123 14 -145 -4 -150 -1 -150
85 0 83 -8 98 -38 76 -26 -18 -28 -42 -7 -70 28 -37 12 -81 -54 -141 -31 -30
-79 -44 -82 -25 -1 4 -3 27 -5 52 -3 42 -15 74 -66 174 -17 33 -20 57 -19 153
2 114 2 115 -21 111 -22 -3 -23 -6 -28 -141 -3 -76 -9 -141 -15 -145 -16 -11
-75 -90 -75 -100 0 -5 -7 -15 -14 -22 -46 -37 -72 -155 -41 -180 12 -10 15
-28 13 -64 l-3 -51 -51 -3 c-49 -3 -53 -1 -104 47 l-52 49 7 109 c5 88 4 112
-8 128 -9 11 -19 16 -23 12 -5 -4 -13 -72 -19 -151 -5 -79 -15 -149 -21 -157
-7 -8 -15 -30 -19 -49 -11 -49 -47 -120 -61 -120 -21 0 -24 44 -22 349 1 292
1 293 24 321 13 15 24 34 24 41 0 8 7 23 15 33 18 23 20 56 4 56 -6 0 -13 -9
-16 -20 -3 -11 -13 -20 -23 -20 -14 0 -18 13 -23 83 -10 118 -8 232 2 260 12
30 109 127 127 127 7 0 28 9 46 19 18 11 56 22 83 26 28 4 58 9 69 12 35 10
-8 35 -67 39 -33 2 -71 13 -94 26 -48 28 -151 133 -164 165 -5 13 -9 144 -9
290 0 228 2 269 16 284 13 14 13 20 2 38 -11 18 -11 23 2 31 8 5 25 10 38 10
12 0 40 9 61 20 21 10 41 17 44 14 16 -16 -30 -77 -75 -100 -27 -14 -28 -18
-28 -85 0 -50 6 -81 20 -109 23 -44 37 -49 70 -22 19 15 21 22 12 39 -7 12
-25 26 -42 31 -36 13 -42 55 -10 72 11 6 20 16 20 23 0 7 20 33 45 57 32 31
45 52 45 71 0 36 11 42 65 33 50 -7 90 -38 124 -96 22 -37 21 -48 -6 -78 -35
-40 -61 -77 -67 -96 -9 -30 10 -76 30 -72 19 3 26 14 49 81 13 38 29 57 73 89
51 38 62 42 110 41 39 -1 60 -7 76 -21 11 -11 31 -23 43 -26 31 -10 93 -82
100 -117 3 -16 10 -32 14 -35 14 -8 10 -59 -6 -90 -8 -16 -15 -36 -15 -45 0
-23 -77 -91 -98 -87 -12 2 -19 17 -23 52 -6 57 -23 72 -85 82 -78 11 -111 -1
-144 -54 -24 -38 -30 -58 -30 -104 0 -31 5 -60 11 -64 6 -3 17 -22 25 -41 15
-35 51 -56 88 -51 30 4 31 32 1 46 -34 16 -48 56 -42 125 6 71 19 87 66 87 51
0 61 -14 61 -87 0 -78 11 -85 82 -52 61 28 135 99 145 137 3 15 12 36 19 47
19 27 17 61 -5 109 -11 23 -22 52 -25 66 -5 23 -22 44 -88 107 -13 13 -34 23
-48 23 -13 0 -32 8 -42 17 -13 11 -42 18 -86 21 -81 5 -99 19 -108 81 -15 107
-108 240 -181 260 -20 6 -43 17 -52 25 -12 11 -43 16 -100 18 -69 3 -85 0 -95
-14 -7 -10 -21 -18 -30 -18 -22 0 -21 35 2 58 29 29 60 102 67 160 4 28 10 52
15 52 4 0 22 -21 38 -47 53 -82 124 -143 212 -183 14 -7 38 -18 54 -26 16 -8
55 -21 85 -29 90 -22 137 -42 194 -82 60 -43 127 -113 150 -158 8 -17 24 -39
36 -49 12 -11 21 -28 21 -38 0 -11 9 -31 20 -45 11 -14 20 -34 20 -45 0 -10
10 -32 22 -48 18 -25 22 -46 25 -127 2 -53 5 -99 8 -102 12 -11 26 19 30 63 3
25 14 64 25 86 17 34 20 59 20 187 0 127 -3 154 -19 186 -11 21 -22 55 -26 77
-4 21 -13 46 -20 57 -8 10 -15 27 -15 39 0 12 -10 32 -22 46 -13 14 -35 48
-51 74 -15 27 -45 72 -67 99 -22 28 -40 56 -40 63 0 22 30 25 53 5 12 -10 33
-25 47 -32 58 -28 90 -48 146 -92 72 -57 144 -133 144 -154 0 -9 7 -18 15 -21
8 -3 17 -22 21 -42 4 -21 13 -44 21 -53 7 -9 17 -40 22 -68 4 -28 15 -59 23
-69 9 -9 18 -47 21 -86 4 -38 13 -79 22 -92 24 -37 21 -219 -5 -275 -11 -24
-20 -63 -20 -86 0 -32 -5 -46 -20 -55 -12 -8 -20 -24 -20 -39 0 -14 -9 -38
-20 -52 -11 -14 -20 -29 -20 -35 0 -5 -19 -33 -42 -62 -23 -29 -49 -66 -57
-81 -9 -16 -30 -52 -47 -81 -52 -89 -53 -210 -1 -258 45 -42 8 -164 -54 -177
-39 -7 -37 -21 4 -28 26 -5 42 -1 74 20 l40 27 6 86 c9 113 36 196 66 200 29
4 51 -14 51 -43 0 -12 8 -33 18 -46 11 -13 27 -63 37 -110 16 -81 16 -88 1
-110 -9 -13 -16 -31 -16 -40 0 -8 -23 -39 -50 -67 l-51 -52 -89 0 c-77 0 -93
3 -110 20 -22 22 -40 26 -40 9 0 -25 62 -68 108 -75 26 -3 55 -11 64 -15 10
-6 27 -5 43 3 23 10 29 8 55 -17 17 -16 30 -36 30 -46 0 -9 9 -27 19 -40 31
-40 33 -227 2 -256 -10 -10 -22 -29 -26 -41 -4 -13 -18 -49 -32 -80 l-25 -57
-19 38 c-11 20 -24 37 -29 37 -6 0 -10 -17 -10 -37 0 -38 33 -83 59 -83 24 0
60 33 71 65 6 18 17 36 25 39 8 3 15 13 15 23 0 10 10 36 22 58 19 35 22 55
21 152 0 106 -2 116 -32 175 -17 35 -37 70 -43 79 -9 13 -4 26 30 66 23 27 45
63 48 80 3 18 12 34 20 37 16 6 20 131 5 141 -5 3 -15 22 -21 43 -16 52 -62
145 -77 157 -8 6 -17 24 -21 40 -18 67 -110 27 -133 -57 -5 -21 -14 -38 -18
-38 -27 0 -18 110 10 136 11 9 19 23 19 29 0 7 20 39 45 71 25 31 45 63 45 69
0 7 9 20 20 30 11 10 20 24 20 30 0 7 9 24 20 38 11 14 20 31 20 39 0 7 9 30
20 51 11 20 20 52 20 70 0 18 10 50 22 72 19 35 22 55 22 165 0 102 -3 131
-18 159 -10 19 -21 62 -24 95 -3 34 -13 77 -23 96 -11 19 -19 46 -19 60 0 15
-7 35 -15 46 -8 10 -20 37 -26 59 -6 21 -19 50 -30 63 -10 14 -19 31 -19 38 0
16 -155 174 -172 175 -7 0 -33 16 -58 34 -52 40 -113 75 -155 91 -33 12 -45
41 -21 50 25 10 125 -16 145 -38 32 -34 72 -21 98 32 25 52 28 91 11 172 -11
55 -11 59 12 83 13 13 32 28 43 31 12 4 42 23 68 44 42 33 54 38 124 43 85 6
105 17 105 56 0 52 -64 121 -113 121 -28 0 -147 67 -221 125 -51 39 -100 69
-153 94 -47 22 -54 45 -28 91 37 65 5 171 -70 230 -62 49 -83 57 -179 64 -85
6 -105 10 -95 20 2 3 55 8 116 12 l112 7 50 -32 c27 -18 61 -48 76 -67 33 -43
79 -48 97 -9 6 14 17 25 23 25 17 0 55 121 55 173 0 52 19 81 69 107 44 22 98
80 107 114 3 12 0 60 -6 105 -13 96 -5 117 50 135 29 10 34 16 32 36 -4 36
-18 45 -70 45 -44 0 -99 -17 -164 -51 -75 -39 -75 -4 -1 95 31 42 72 96 90
120 18 24 33 51 33 59 0 7 9 25 20 39 11 14 20 36 20 48 0 12 9 34 20 48 11
14 20 40 20 59 0 18 9 65 20 103 16 55 20 100 20 210 0 110 -4 156 -20 213
-11 39 -20 80 -20 91 0 10 -9 30 -20 44 -11 14 -20 31 -20 39 0 7 -11 36 -25
63 -13 28 -25 55 -25 61 0 6 -9 19 -20 29 -11 10 -20 22 -20 26 0 21 -80 129
-148 201 -67 70 -101 95 -225 165 -12 7 -30 13 -40 13 -10 0 -32 8 -50 17 -26
14 -66 18 -216 21 -163 4 -190 2 -245 -16 -33 -11 -77 -23 -97 -26 -21 -4 -42
-13 -49 -21 -10 -13 -19 -11 -59 12 -75 43 -99 70 -112 129 -19 85 17 182 54
145 6 -6 41 -11 78 -11 78 0 142 28 196 86 18 18 35 34 37 34 11 0 96 -53 96
-60 0 -5 10 -12 23 -16 12 -4 33 -15 46 -25 13 -11 33 -19 43 -19 11 0 31 -9
45 -20 41 -32 154 -28 224 8 30 15 63 34 75 42 28 20 74 91 74 113 0 10 9 30
19 45 12 18 21 53 25 101 7 80 31 166 54 193 13 15 11 19 -19 37 -46 28 -57
27 -51 -6 3 -16 -1 -30 -9 -37 -20 -16 -58 -71 -69 -101 -5 -14 -14 -25 -19
-25 -15 0 -32 -36 -25 -54 10 -26 34 -18 41 14 4 21 11 30 24 30 26 0 26 -64
0 -106 -10 -17 -22 -44 -25 -60 -8 -37 -91 -124 -119 -124 -11 0 -29 -7 -39
-16 -29 -27 -107 -30 -153 -5 -22 12 -47 21 -56 21 -9 0 -19 6 -22 14 -3 7
-31 28 -61 46 -31 17 -56 36 -56 40 0 5 -14 17 -30 25 -41 21 -56 60 -35 91
18 28 58 31 112 9 19 -8 46 -15 59 -15 13 0 33 -9 44 -20 13 -13 33 -20 58
-20 21 0 47 -7 58 -15 22 -17 54 -20 54 -5 0 6 -8 14 -17 17 -10 4 -29 15 -42
25 -13 10 -36 18 -51 18 -15 0 -37 9 -49 19 -12 10 -38 22 -58 26 -20 4 -46
13 -57 21 -11 8 -42 14 -69 14 -34 0 -49 4 -54 16 -9 24 15 34 85 34 65 0 107
14 97 31 -4 5 -46 9 -95 9 -81 0 -90 -2 -101 -21 -8 -15 -14 -18 -22 -10 -8 8
-8 14 1 23 7 7 12 20 12 30 0 14 -8 18 -37 18 -66 0 -70 11 -29 74 23 36 53
67 81 84 24 15 45 33 45 40 0 13 4 13 148 16 82 1 92 -1 92 -17 0 -9 11 -22
25 -27 14 -5 25 -16 25 -23 0 -8 9 -26 20 -40 11 -14 20 -31 20 -39 0 -7 18
-39 41 -72 30 -43 38 -61 29 -70 -8 -8 -21 -5 -50 12 -21 12 -41 22 -44 22
-16 0 -2 -30 28 -59 31 -30 39 -33 76 -28 34 4 52 17 114 79 68 69 83 98 51
98 -8 0 -35 -18 -60 -40 -52 -45 -80 -51 -91 -17 -4 12 -15 33 -25 46 -11 13
-19 31 -19 40 0 9 -9 24 -20 34 -11 9 -20 22 -20 29 0 21 -59 78 -81 78 -10 0
-19 6 -19 14 0 21 -23 26 -129 26 -84 0 -101 -3 -121 -20z m-212 -252 c7 -7
12 -20 12 -29 0 -9 7 -19 15 -23 8 -3 15 -17 15 -31 0 -34 -33 -30 -38 4 -2
13 -13 32 -25 41 -13 11 -18 23 -14 33 8 20 19 21 35 5z m-3988 -93 c0 -8 -8
-19 -19 -24 -10 -6 -24 -24 -31 -41 -15 -37 -36 -39 -45 -3 -5 21 0 32 22 54
31 29 73 38 73 14z m4120 -45 c0 -23 -33 -60 -54 -60 -8 0 -21 -8 -28 -18 -7
-10 -18 -21 -25 -25 -17 -10 -63 3 -63 17 0 12 74 66 89 66 5 0 16 9 26 20 10
11 26 20 37 20 11 0 18 -7 18 -20z m-3918 -55 c12 -47 -7 -54 -47 -15 -39 38
-37 52 8 48 25 -2 32 -9 39 -33z m3703 24 c10 -15 -34 -58 -69 -68 -62 -16
-75 12 -25 53 31 27 82 35 94 15z m-3972 -85 c49 -48 57 -64 32 -64 -8 0 -15
7 -15 15 0 8 -7 15 -15 15 -19 0 -65 47 -65 66 0 23 15 16 63 -32z m4015 -62
c3 -28 0 -33 -15 -30 -12 2 -19 14 -21 36 -3 28 0 33 15 30 12 -2 19 -14 21
-36z m-3835 -52 c3 -12 -4 -29 -18 -44 -13 -14 -25 -30 -27 -37 -6 -17 -38 -4
-38 15 0 8 8 17 19 21 10 3 21 19 25 35 6 34 31 40 39 10z m3877 -16 c0 -17
-6 -24 -20 -24 -14 0 -20 7 -20 23 0 13 3 26 6 30 12 12 34 -6 34 -29z m-1880
-209 c15 -18 6 -45 -15 -45 -10 0 -15 10 -15 30 0 33 11 38 30 15z m2485 -366
c40 -13 81 -37 114 -66 47 -41 51 -48 51 -89 0 -53 -18 -65 -60 -40 -16 9 -38
16 -49 16 -40 0 -89 28 -106 60 -13 26 -19 29 -31 19 -8 -6 -14 -16 -14 -21 0
-6 -14 -33 -32 -60 -36 -54 -46 -49 -47 24 -1 20 -6 40 -12 44 -6 3 -19 25
-28 48 -10 23 -26 47 -35 55 -38 32 -12 41 102 36 49 -3 110 -13 147 -26z
m-4865 -109 c13 -8 11 -17 -12 -62 -15 -29 -30 -71 -33 -93 -10 -63 -15 -75
-34 -75 -24 0 -37 17 -46 57 -3 18 -22 52 -41 77 l-35 46 26 10 c15 6 33 10
41 10 8 0 31 9 51 20 42 22 61 24 83 10z m4340 -31 c39 -43 50 -73 50 -141 0
-83 -46 -126 -115 -107 -43 12 -61 46 -71 133 -7 58 1 81 49 134 29 31 44 28
87 -19z m-4547 -56 c-3 -10 -11 -22 -18 -28 -6 -5 -19 -25 -29 -42 -10 -21
-32 -40 -61 -53 -44 -20 -95 -27 -95 -12 0 9 77 84 128 125 39 32 85 37 75 10z
m2526 3 c7 -8 11 -34 9 -58 -3 -41 -5 -43 -36 -46 -27 -3 -35 1 -39 18 -5 21
-10 21 -77 15 -39 -4 -73 -9 -75 -11 -2 -2 -1 -10 2 -19 5 -11 23 -15 77 -15
54 0 70 -3 70 -14 0 -28 -113 -43 -164 -22 -35 15 -36 16 -36 70 0 30 -3 61
-6 70 -6 16 -12 15 212 24 35 1 55 -3 63 -12z m-1994 -66 c22 -24 33 -150 16
-192 -8 -22 -18 -28 -57 -34 -44 -6 -50 -5 -71 20 -35 42 -39 73 -15 120 12
23 22 46 22 53 0 15 50 52 71 53 9 0 24 -9 34 -20z m2055 -75 c17 -20 8 -50
-15 -50 -20 0 -31 25 -21 51 7 18 20 18 36 -1z m-97 -81 c19 -10 73 -20 140
-25 148 -11 154 -17 38 -40 -92 -18 -107 -39 -28 -39 33 0 59 -5 66 -13 17
-22 3 -27 -75 -27 -56 0 -75 4 -82 15 -7 13 -24 15 -83 13 -41 -2 -74 -7 -74
-13 0 -5 28 -21 63 -34 34 -14 62 -30 62 -37 0 -6 -15 -17 -32 -24 -89 -33
-85 -24 -68 -140 6 -46 15 -70 30 -82 33 -27 24 -35 -47 -42 -38 -4 -90 -14
-118 -23 -66 -22 -476 -26 -483 -5 -2 7 10 17 28 24 24 8 38 23 57 62 14 28
44 87 68 131 24 44 44 92 44 106 2 51 75 88 174 89 22 0 56 10 80 24 35 20 55
24 117 24 78 -1 120 7 120 23 0 5 -21 9 -46 9 -47 0 -84 13 -84 30 0 16 99 11
133 -6z m-623 -172 c0 -10 -4 -22 -9 -27 -18 -19 -69 -124 -76 -157 -4 -18
-13 -40 -20 -48 -7 -8 -16 -30 -20 -47 -9 -44 -59 -85 -99 -81 -30 3 -31 5
-34 56 -3 45 1 58 22 83 15 17 26 37 26 45 0 30 60 143 90 168 39 33 120 38
120 8z m1599 -51 c12 -16 21 -35 21 -43 0 -7 9 -32 20 -56 10 -23 17 -49 14
-57 -7 -18 -39 -28 -68 -21 -21 5 -25 15 -35 81 -16 108 -15 125 8 125 11 0
29 -13 40 -29z m-643 -25 c15 -12 20 -30 24 -103 l5 -88 63 2 c59 1 62 0 62
-23 0 -33 -54 -58 -154 -73 -91 -13 -102 -8 -116 50 l-8 34 -1 -31 c-1 -37
-21 -57 -53 -52 -21 3 -23 9 -25 64 -1 33 -11 85 -22 115 -25 64 -26 79 -7 79
8 0 24 9 37 20 30 24 163 29 195 6z m-1248 -194 c2 -11 -6 -30 -16 -40 -11
-11 -33 -42 -48 -68 -15 -27 -36 -60 -46 -73 -22 -29 -24 -84 -3 -101 12 -10
54 -11 178 -7 89 4 180 8 202 11 22 2 103 7 180 11 78 4 173 15 215 25 41 10
101 21 133 25 32 3 72 12 89 21 38 20 128 28 148 14 26 -18 -16 -40 -77 -40
-34 0 -66 -7 -90 -20 -26 -14 -57 -20 -98 -20 -39 0 -69 -6 -83 -16 -13 -9
-62 -19 -120 -25 -53 -5 -132 -16 -176 -24 -90 -17 -528 -21 -569 -6 -41 16
-43 57 -7 111 5 8 15 26 20 40 19 47 80 140 119 183 28 31 44 31 49 -1z m3456
-43 c-27 -30 -64 -20 -64 17 0 12 47 21 63 12 18 -9 18 -11 1 -29z m-4909 -51
c5 -19 30 -56 61 -89 l54 -56 -25 -44 c-41 -71 -42 -73 -51 -103 -9 -27 -12
-29 -74 -31 -92 -4 -118 -13 -136 -47 -12 -23 -21 -29 -42 -26 -26 3 -27 5
-30 80 -3 73 -1 78 27 110 l29 33 25 -23 c27 -26 65 -27 77 -2 42 86 50 112
50 169 0 46 3 61 14 61 8 0 18 -14 21 -32z m4801 -35 c9 -21 25 -48 37 -61 26
-28 121 -72 156 -72 42 0 65 -22 58 -56 -23 -116 -36 -129 -99 -97 -42 20
-128 46 -158 46 -8 0 -22 -3 -31 -7 -12 -5 -23 9 -49 59 -18 36 -39 70 -47 76
-7 6 -13 29 -13 50 0 34 4 41 33 54 17 9 43 22 57 30 36 21 39 19 56 -22z
m-243 -14 c34 -9 37 -13 37 -47 0 -20 7 -48 15 -62 7 -14 20 -38 28 -55 8 -16
21 -36 30 -44 21 -17 22 -55 2 -75 -9 -8 -22 -31 -30 -51 -9 -19 -22 -35 -30
-35 -16 0 -35 -30 -35 -54 0 -8 9 -18 20 -21 23 -7 50 10 50 31 0 7 23 38 52
68 59 63 91 74 158 56 l43 -11 -6 -52 c-4 -28 -1 -91 5 -141 19 -151 -9 -216
-91 -216 -22 0 -63 -9 -92 -20 -28 -11 -77 -23 -109 -27 -33 -3 -61 -11 -64
-18 -2 -7 -25 -16 -49 -19 -25 -4 -51 -14 -57 -21 -7 -8 -23 -15 -37 -15 -28
0 -74 -22 -92 -44 -8 -9 -22 -16 -32 -16 -10 0 -21 -9 -24 -20 -4 -13 -15 -20
-30 -20 -39 0 -38 18 2 43 51 33 148 129 168 166 8 17 19 31 24 31 5 0 14 14
20 32 6 17 17 39 25 47 7 9 16 40 18 69 3 29 13 60 22 71 14 15 16 38 14 142
-3 109 -5 124 -20 127 -16 3 -18 -7 -18 -105 0 -86 -4 -117 -20 -152 -11 -24
-20 -50 -20 -59 0 -21 -58 -140 -88 -179 -13 -18 -28 -30 -33 -27 -5 3 -9 50
-9 104 l0 99 30 16 c28 14 30 19 30 71 0 61 -21 117 -52 139 -19 13 -20 18 -9
76 6 34 17 69 26 79 8 9 15 23 15 30 0 22 51 90 79 105 31 17 82 19 134 4z
m-1743 -105 c0 -133 5 -144 70 -144 43 0 50 -3 50 -20 0 -10 -9 -24 -19 -30
-19 -10 -19 -12 -4 -38 19 -34 12 -62 -17 -62 -15 0 -20 -7 -20 -24 0 -19 7
-26 29 -31 20 -4 33 -16 42 -37 8 -19 9 -33 3 -35 -43 -15 -42 -48 2 -59 19
-5 29 -2 36 10 11 19 28 21 28 3 0 -7 -22 -27 -50 -45 -27 -18 -57 -46 -65
-62 -27 -53 -85 -32 -85 30 0 12 -8 33 -19 46 -10 13 -22 49 -26 81 -4 32 -14
79 -22 105 -23 73 -15 341 12 386 11 17 27 32 37 32 16 0 18 -11 18 -106z
m-133 20 c8 -21 -13 -42 -28 -27 -13 13 -5 43 11 43 6 0 13 -7 17 -16z m-2283
-67 c48 -47 66 -103 66 -201 0 -68 -3 -86 -19 -100 -11 -10 -20 -36 -24 -69
-3 -29 -9 -61 -13 -72 -13 -33 44 24 60 60 8 17 29 47 47 69 29 32 44 40 89
47 30 5 86 6 123 3 57 -6 73 -11 98 -36 47 -47 36 -88 -23 -88 -23 0 -105 -81
-119 -118 -11 -27 -12 -96 -3 -142 9 -44 78 -114 139 -141 89 -40 259 -24 351
32 17 10 38 19 45 19 8 0 31 9 52 20 43 23 47 24 47 9 0 -16 -68 -79 -84 -79
-8 0 -19 -7 -26 -15 -7 -8 -19 -15 -28 -15 -9 0 -34 -9 -56 -19 -99 -48 -331
-77 -378 -48 -13 8 -34 17 -49 21 -14 3 -46 26 -71 51 -25 25 -51 45 -57 45
-6 0 -11 10 -11 23 0 29 -15 51 -29 43 -18 -12 -13 -55 9 -68 30 -19 26 -48
-7 -48 -32 0 -183 121 -183 145 0 8 -9 20 -20 27 -12 8 -23 28 -27 51 -4 27
-10 37 -24 37 -26 0 -26 -53 0 -77 10 -10 22 -28 25 -40 4 -13 11 -23 15 -23
5 0 47 -38 94 -85 54 -54 94 -85 107 -85 12 0 33 -9 47 -20 14 -11 38 -20 52
-20 15 0 36 -6 46 -14 18 -13 18 -14 -4 -26 -36 -18 -189 -3 -196 20 -3 10
-19 20 -38 23 -18 3 -53 19 -78 35 -57 40 -165 151 -174 180 -3 12 -12 22 -19
22 -7 0 -17 14 -22 32 -11 36 -31 48 -40 23 -4 -10 2 -28 15 -45 11 -16 21
-35 21 -43 0 -7 16 -31 35 -53 19 -21 35 -42 35 -45 0 -9 127 -109 138 -109 6
0 20 -9 30 -20 11 -12 37 -24 58 -27 21 -4 45 -13 53 -20 11 -11 49 -13 186
-11 135 2 175 0 188 -11 26 -21 3 -41 -47 -41 -22 0 -54 -8 -71 -17 -25 -13
-64 -16 -235 -17 -180 -1 -209 1 -233 17 -14 9 -34 17 -44 17 -9 0 -33 10 -52
23 -65 41 -76 47 -109 62 -18 9 -41 24 -52 35 -11 11 -27 20 -35 20 -8 0 -30
8 -50 17 -34 16 -37 16 -71 -2 -55 -29 -62 -10 -25 68 28 59 35 66 82 86 28
11 60 21 69 21 10 0 24 7 31 16 11 14 9 20 -18 43 -18 14 -42 45 -54 69 -19
38 -21 54 -17 143 7 133 4 143 -43 164 -21 10 -39 21 -39 25 0 18 71 68 104
74 68 13 140 -22 159 -77 4 -10 11 -15 17 -12 15 9 12 57 -5 79 -22 30 -18 86
11 135 42 75 81 93 182 85 55 -4 68 -9 96 -37z m1991 -19 c15 -6 28 -22 31
-37 17 -84 18 -86 53 -83 69 7 78 -1 85 -75 4 -38 13 -88 21 -113 7 -25 16
-67 20 -94 4 -27 15 -65 26 -85 10 -20 19 -45 20 -56 1 -29 61 -147 81 -159
14 -8 28 1 78 52 34 34 68 62 75 62 8 0 16 8 20 18 7 21 91 62 126 62 15 0 33
-7 40 -17 8 -9 29 -22 47 -30 17 -7 32 -17 32 -22 0 -5 14 -11 31 -15 39 -8
33 -30 -9 -34 -20 -2 -32 -9 -32 -18 0 -8 -8 -17 -17 -21 -10 -3 -39 -21 -65
-40 -52 -37 -51 -37 -126 13 -25 18 -44 23 -62 19 -27 -6 -122 -103 -114 -116
2 -5 32 -18 64 -30 72 -26 73 -33 25 -133 -19 -40 -35 -78 -35 -85 0 -7 -5
-17 -10 -24 -6 -7 -21 -32 -33 -57 -16 -30 -35 -51 -60 -63 -20 -10 -37 -22
-37 -27 0 -5 -19 -11 -42 -15 -24 -4 -54 -16 -67 -26 -14 -11 -40 -19 -63 -19
-28 0 -45 -7 -61 -24 -16 -17 -33 -24 -64 -24 -69 -1 -89 -25 -29 -35 42 -7
76 1 76 18 0 8 23 15 62 19 34 3 71 12 83 20 11 7 40 17 63 21 24 4 46 13 49
21 3 8 21 18 42 24 49 13 101 62 101 95 0 14 8 38 18 53 10 15 22 34 27 43 39
66 98 138 183 224 115 116 122 122 158 136 34 12 54 -2 34 -26 -7 -8 -17 -15
-23 -15 -21 0 -167 -148 -209 -212 -17 -27 -34 -48 -38 -48 -4 0 -14 -17 -24
-37 -9 -21 -29 -60 -43 -88 -15 -27 -36 -75 -48 -105 -17 -48 -26 -58 -65 -77
-25 -12 -65 -24 -90 -28 -25 -4 -65 -15 -90 -25 -25 -10 -67 -21 -93 -25 -26
-3 -63 -13 -82 -21 -60 -25 -134 -18 -189 17 l-48 30 -23 -21 c-21 -20 -26
-20 -66 -9 -24 6 -51 20 -60 30 -9 10 -28 21 -41 24 -27 7 -97 69 -123 109
-12 18 -13 39 -6 120 10 102 24 136 42 104 6 -10 15 -18 21 -18 11 0 7 28 -12
76 -11 25 -10 35 1 59 18 38 32 34 42 -12 10 -47 13 -50 36 -29 15 14 24 15
40 6 12 -6 21 -15 21 -20 0 -4 13 -21 28 -37 16 -16 37 -53 47 -83 9 -30 21
-59 26 -65 5 -5 9 -41 9 -80 0 -68 15 -116 27 -87 5 14 16 25 47 46 19 13 19
14 -1 57 -12 24 -24 70 -27 102 -4 32 -15 75 -25 95 -22 42 -41 109 -48 167
-3 30 -11 44 -26 50 -29 13 -33 47 -7 70 25 23 26 51 1 65 -11 5 -22 24 -26
41 -4 17 -16 40 -26 50 -10 10 -19 28 -19 39 0 10 -6 23 -13 27 -7 4 -23 24
-35 43 -11 19 -56 64 -98 100 -42 36 -87 74 -98 86 -12 12 -49 45 -84 73 -35
29 -61 58 -59 64 4 14 101 29 138 21 25 -5 58 -43 165 -189 24 -33 44 -65 44
-71 0 -6 9 -19 19 -28 11 -10 22 -29 26 -43 3 -15 15 -38 26 -51 10 -14 19
-33 19 -44 0 -28 34 -19 38 11 2 13 -5 32 -16 44 -14 14 -24 45 -29 87 -9 66
-8 256 2 298 8 32 43 29 55 -5 28 -80 54 -79 95 2 21 42 37 62 55 66 39 11 67
10 95 -3z m-820 -99 c20 -12 48 -33 64 -48 15 -14 57 -51 94 -81 37 -30 97
-90 133 -132 36 -42 78 -91 95 -109 16 -17 37 -44 46 -60 10 -16 20 -29 24
-29 4 0 13 -16 19 -35 6 -19 18 -35 26 -35 8 0 14 -4 14 -9 0 -5 3 -17 6 -26
5 -13 2 -16 -17 -13 -16 2 -25 11 -27 26 -2 12 -10 22 -18 22 -8 0 -19 11 -24
24 -5 14 -17 35 -27 47 -37 46 -261 266 -334 326 -117 98 -151 131 -144 143
10 15 30 12 70 -11z m1113 4 c-2 -10 -10 -18 -18 -18 -8 0 -16 8 -18 18 -2 12
3 17 18 17 15 0 20 -5 18 -17z m1278 -48 c13 -21 24 -25 62 -25 25 0 72 7 104
16 52 15 64 15 101 3 60 -20 77 -41 77 -93 0 -25 -4 -48 -10 -51 -5 -3 -26 10
-45 29 -34 34 -79 55 -92 42 -7 -6 73 -113 89 -118 6 -2 13 -47 16 -102 4 -85
7 -99 23 -103 21 -6 23 -12 10 -32 -7 -10 -13 -11 -30 -2 -23 13 -41 7 -41
-13 0 -18 -66 -103 -91 -117 -17 -9 -24 -6 -44 15 -13 14 -29 26 -35 26 -16 0
-12 26 6 41 22 18 64 115 64 147 0 48 -41 112 -116 180 -114 103 -151 165
-101 175 12 2 25 5 29 6 4 0 15 -10 24 -24z m-733 -88 c20 -18 37 -36 37 -40
0 -4 -24 -7 -54 -7 -64 0 -85 17 -68 55 16 34 41 31 85 -8z m280 -427 c46 -48
30 -89 -17 -45 -15 14 -34 25 -42 25 -9 0 -28 7 -44 17 -26 15 -31 15 -69 0
-52 -21 -80 -21 -88 -1 -10 26 13 32 126 32 105 1 108 0 134 -28z m-1493 -69
c0 -34 -26 -101 -40 -101 -11 0 -14 113 -3 123 3 4 15 7 25 7 13 0 18 -8 18
-29z m2068 -9 c4 -14 -34 -16 -42 -3 -6 10 13 21 28 17 6 -1 12 -8 14 -14z
m-514 -74 c8 -30 8 -232 0 -252 -17 -43 -24 -3 -24 129 0 134 9 178 24 123z
m-1704 -81 c0 -18 -8 -43 -17 -57 -14 -20 -17 -46 -15 -164 l2 -140 36 -30
c52 -42 98 -73 124 -81 11 -4 19 -12 17 -18 -2 -8 -53 -14 -158 -17 -215 -7
-309 -2 -316 16 -5 13 74 179 131 275 41 70 176 249 187 249 5 0 9 -15 9 -33z
m1934 -22 c8 -8 23 -15 33 -15 10 0 61 -12 112 -25 52 -14 108 -25 123 -25 16
0 45 -7 64 -15 52 -21 122 -28 179 -15 28 6 102 19 165 29 63 11 128 24 143
30 16 6 47 11 71 11 43 0 52 -8 70 -62 15 -48 -74 -188 -119 -188 -8 0 -32 -9
-52 -20 -32 -17 -57 -20 -168 -20 -108 0 -137 4 -174 20 -24 11 -51 20 -61 20
-9 0 -28 8 -41 19 -13 10 -35 22 -48 26 -14 4 -45 22 -70 40 -25 17 -73 50
-106 73 -68 47 -163 132 -147 132 6 0 17 -7 26 -15z m-390 -86 c3 -17 6 -56 6
-85 0 -46 3 -54 19 -54 12 0 23 11 29 30 11 29 11 29 44 16 l33 -14 -3 -74
c-3 -49 -10 -84 -23 -106 -10 -18 -19 -43 -19 -55 -1 -52 -2 -52 -265 -55
-136 -2 -253 -1 -262 2 -13 6 -13 9 -1 29 8 12 18 46 21 76 8 67 22 85 32 39
11 -58 16 -68 30 -68 19 0 32 50 34 133 2 36 21 5 21 -33 0 -49 15 -90 33 -90
8 0 22 9 32 20 10 11 26 20 35 20 24 0 38 19 42 59 2 27 9 36 31 44 22 7 32 5
47 -8 24 -21 26 -15 35 80 11 118 35 164 49 94z m227 -351 c46 -37 39 -48 -34
-48 -52 0 -64 12 -53 55 9 34 38 32 87 -7z m-3551 -613 c0 -34 -57 -112 -88
-120 -35 -9 -39 1 -13 33 12 15 34 46 49 69 30 48 52 55 52 18z m2300 6 c14
-28 13 -30 -16 -41 -16 -6 -24 -16 -22 -27 5 -27 27 -26 39 1 19 42 39 33 39
-18 0 -36 5 -48 26 -65 15 -12 39 -21 55 -21 35 0 43 -12 24 -36 -8 -10 -15
-28 -15 -40 0 -12 -9 -31 -20 -44 -11 -13 -20 -33 -20 -45 0 -12 -9 -30 -20
-40 -10 -9 -24 -33 -30 -51 -7 -19 -15 -34 -20 -34 -4 0 -11 -15 -14 -33 -3
-18 -15 -40 -26 -50 -11 -9 -20 -24 -20 -32 0 -9 -8 -32 -19 -53 -23 -47 -33
-124 -25 -195 5 -44 13 -63 38 -89 58 -59 115 -108 129 -108 7 0 24 -8 37 -17
30 -21 75 -47 110 -63 14 -6 42 -20 62 -31 20 -10 45 -19 56 -19 10 0 27 -8
36 -19 9 -10 29 -21 44 -24 39 -8 92 -61 92 -91 0 -17 7 -27 23 -32 12 -4 42
-23 67 -44 25 -20 53 -40 63 -43 9 -4 17 -13 17 -21 0 -8 4 -16 9 -18 8 -3 86
-70 167 -143 42 -38 48 -69 15 -73 -23 -4 -123 40 -149 65 -7 7 -34 22 -59 33
-26 11 -61 31 -77 44 -17 13 -41 26 -53 30 -13 4 -23 11 -23 17 0 5 -15 16
-32 24 -54 25 -92 49 -101 63 -11 16 -37 15 -37 -2 0 -7 10 -20 22 -28 12 -8
18 -19 14 -26 -11 -19 -37 -14 -43 8 -5 20 -37 28 -48 11 -7 -13 53 -81 71
-81 8 0 14 -7 14 -15 0 -19 -24 -19 -40 0 -19 23 -100 65 -127 65 -28 0 -40
-24 -23 -45 7 -9 10 -18 7 -22 -9 -8 -98 39 -104 55 -3 6 -14 12 -24 12 -11 0
-22 7 -25 15 -7 17 -34 21 -34 5 0 -6 6 -13 13 -16 20 -7 61 -89 54 -108 -11
-29 -69 -17 -85 17 -7 15 -21 27 -32 27 -11 0 -29 4 -42 9 -13 6 -44 13 -70
16 -37 5 -56 15 -91 48 -40 39 -97 131 -97 158 0 6 -9 22 -20 36 -11 14 -20
35 -20 47 0 11 -9 50 -20 84 -11 35 -20 85 -20 111 0 52 46 211 60 211 5 0 15
11 22 24 7 14 49 64 93 112 81 88 187 233 200 275 4 12 18 43 31 67 31 58 34
142 5 142 -10 0 -29 8 -42 18 -13 10 -38 24 -56 31 -17 7 -41 23 -53 36 -22
23 -22 25 -6 50 10 15 23 24 29 22 7 -3 19 -8 28 -12 10 -4 27 3 45 19 35 31
50 32 64 7z m-257 -14 c12 -33 -29 -53 -129 -63 -61 -6 -66 -6 -62 12 2 10 12
20 23 23 11 2 31 12 44 22 29 23 116 27 124 6z m-1668 -267 c4 -6 10 -59 13
-118 l7 -107 45 -3 c53 -4 70 -16 70 -49 0 -32 -24 -39 -57 -18 -15 10 -41 21
-57 26 -17 4 -49 14 -71 23 -22 8 -66 15 -97 16 -32 0 -58 4 -58 10 0 15 174
229 187 230 6 0 15 -5 18 -10z m-358 -358 c-9 -10 -17 -26 -17 -36 0 -9 -8
-31 -17 -49 -13 -24 -19 -65 -23 -162 l-5 -130 -70 -5 c-53 -5 -78 -12 -103
-30 -17 -13 -32 -27 -32 -30 0 -4 -11 -19 -25 -34 -22 -24 -25 -36 -25 -107 0
-76 1 -81 33 -113 46 -49 77 -53 116 -16 42 40 87 41 102 3 17 -44 5 -112 -22
-131 -12 -9 -31 -24 -41 -34 -15 -15 -35 -18 -117 -18 -61 0 -102 4 -107 11
-3 6 -19 18 -35 28 -16 10 -51 47 -79 84 l-50 66 0 108 c0 83 5 122 20 166 11
31 20 62 20 68 0 18 64 110 103 148 49 47 130 104 207 146 36 20 87 52 114 71
33 23 53 31 59 25 7 -7 5 -17 -6 -29z m418 -180 c56 -6 70 -11 73 -25 4 -22
-15 -47 -35 -47 -8 0 -33 -16 -56 -35 -22 -19 -44 -35 -48 -35 -5 0 -19 11
-33 24 -21 19 -26 33 -26 73 0 57 6 67 35 58 11 -4 51 -10 90 -13z m1492 -540
c11 -7 31 -32 43 -57 12 -25 33 -54 46 -64 32 -25 74 -87 74 -109 0 -9 9 -30
20 -47 11 -16 20 -41 20 -55 0 -14 9 -38 20 -55 11 -16 20 -42 20 -57 0 -24
-4 -28 -28 -28 -16 0 -37 9 -47 20 -10 11 -24 20 -31 20 -7 0 -18 9 -24 20 -6
11 -17 20 -24 20 -7 0 -25 10 -39 23 -65 56 -138 107 -154 107 -7 0 -17 9 -23
20 -6 11 -17 20 -24 20 -7 0 -21 9 -31 20 -10 11 -27 22 -39 26 -38 12 -167
126 -179 158 -4 11 -3 22 2 25 18 11 375 5 398 -7z m2141 4 l22 -7 0 -805 0
-805 -32 -42 c-18 -23 -36 -43 -40 -45 -4 -2 -22 -14 -41 -26 -32 -22 -41 -23
-370 -29 -374 -6 -367 -7 -367 57 0 19 -7 39 -16 46 -8 8 -21 28 -29 46 -21
51 -173 194 -205 194 -7 0 -23 9 -37 20 -14 11 -33 20 -43 20 -9 0 -27 8 -39
19 -11 10 -40 21 -64 25 -23 3 -55 13 -72 21 -16 8 -60 17 -97 20 -55 5 -68
10 -74 27 -8 25 4 89 21 108 7 8 15 35 18 59 3 25 12 48 21 53 8 5 18 28 21
53 4 24 13 49 21 56 7 6 16 27 20 48 4 20 15 44 25 54 11 10 19 29 19 42 0 13
10 34 22 45 31 29 32 125 2 167 -49 66 -27 125 29 77 16 -13 41 -24 58 -24 16
0 44 -6 62 -14 18 -7 54 -16 80 -20 26 -4 72 -16 101 -26 29 -10 84 -19 122
-21 63 -4 69 -2 72 17 2 11 -6 28 -18 39 -11 10 -20 31 -20 46 0 17 -7 32 -19
38 -10 6 -21 24 -24 41 -4 18 -13 30 -22 30 -8 0 -15 9 -15 20 0 25 43 37 75
20 13 -7 28 -9 34 -6 14 9 15 53 1 58 -5 2 -70 63 -144 135 -117 115 -143 148
-137 173 2 8 1053 4 1079 -4z m-1343 -116 c0 -22 -29 -18 -33 3 -3 14 1 18 15
15 10 -2 18 -10 18 -18z m46 -31 c16 -8 18 -13 8 -25 -6 -8 -20 -14 -30 -14
-11 0 -19 -7 -19 -15 0 -8 -9 -15 -20 -15 -11 0 -20 7 -20 15 0 8 9 15 20 15
15 0 20 7 20 25 0 27 10 31 41 14z m-1184 -19 c14 -11 31 -20 38 -20 6 0 20
-9 30 -20 10 -11 22 -20 28 -20 15 0 166 -103 162 -110 -2 -4 -38 -10 -80 -13
-55 -4 -82 -11 -102 -27 -32 -25 -45 -10 -18 20 23 26 14 57 -28 98 -24 23
-47 35 -76 39 -22 3 -41 8 -41 11 0 7 52 62 58 62 2 0 15 -9 29 -20z m-191
-37 c-5 -12 -10 -13 -17 -6 -8 8 -7 18 2 34 12 21 14 22 17 6 2 -10 1 -25 -2
-34z m1451 1 c5 -14 -64 -56 -72 -44 -3 5 0 20 7 35 9 19 18 25 37 23 13 -2
26 -8 28 -14z m-334 -45 c7 -10 26 -20 41 -23 16 -3 29 -6 30 -8 2 -2 12 -17
25 -35 12 -18 26 -58 31 -89 5 -31 16 -64 25 -74 8 -9 15 -30 15 -47 0 -17 10
-43 23 -59 28 -36 31 -122 5 -150 -9 -11 -20 -34 -25 -53 -5 -19 -14 -36 -21
-39 -9 -3 -12 24 -12 103 l0 107 -42 71 c-22 40 -53 86 -68 103 -15 18 -40 56
-54 85 -15 30 -35 66 -44 81 -13 21 -14 29 -4 41 15 18 58 11 75 -14z m1737
-53 c38 -26 40 -30 24 -39 -11 -6 -42 -28 -71 -49 -29 -21 -55 -38 -58 -38 -7
0 -6 175 1 195 6 14 11 12 34 -12 15 -15 46 -41 70 -57z m-1350 64 c11 -7 12
-12 3 -21 -15 -15 -43 -5 -43 16 0 17 18 19 40 5z m-1328 -65 c9 -19 8 -29 -6
-50 -9 -14 -21 -25 -26 -25 -14 0 -80 41 -80 50 0 15 54 49 78 50 14 0 26 -9
34 -25z m1418 15 c0 -5 -11 -10 -25 -10 -14 0 -25 5 -25 10 0 6 11 10 25 10
14 0 25 -4 25 -10z m-2485 -17 c4 -10 9 -53 12 -95 6 -78 6 -78 -19 -78 -30 0
-118 65 -118 87 0 19 86 103 105 103 7 0 16 -8 20 -17z m2274 -25 c32 -21 51
-23 176 -26 99 -2 143 -7 150 -16 6 -7 20 -16 33 -20 29 -9 28 -31 -2 -59 -13
-12 -26 -33 -28 -46 -5 -38 -25 -36 -38 3 -6 20 -15 36 -20 36 -4 0 -13 14
-20 30 -15 36 -40 40 -40 6 0 -59 -30 -75 -52 -29 -18 37 -36 40 -40 6 -4 -38
-21 -35 -69 12 l-41 39 -17 -23 c-19 -24 -41 -22 -41 4 0 8 -9 19 -20 25 -20
10 -28 58 -13 73 13 13 46 7 82 -15z m-490 -32 c8 -9 11 -57 9 -147 l-3 -134
-36 -3 c-30 -3 -46 5 -102 49 -85 68 -80 79 25 53 24 -5 29 -2 38 21 5 14 10
53 10 85 0 32 3 65 6 74 8 20 38 21 53 2z m-381 -8 c-3 -7 -15 -13 -28 -13
-13 0 -25 6 -27 13 -3 8 6 12 27 12 21 0 30 -4 28 -12z m52 -47 c0 -14 -18
-23 -30 -16 -6 4 -8 11 -5 16 8 12 35 12 35 0z m1230 -80 c0 -23 -16 -36 -25
-21 -9 14 1 40 15 40 5 0 10 -9 10 -19z m-1105 0 c7 -12 -12 -24 -25 -16 -11
7 -4 25 10 25 5 0 11 -4 15 -9z m555 -382 c0 -28 -4 -39 -15 -39 -14 0 -19 17
-16 50 6 55 31 47 31 -11z m-50 -115 c0 -21 -4 -33 -10 -29 -5 3 -10 19 -10
36 0 16 5 29 10 29 6 0 10 -16 10 -36z m-30 -118 c0 -6 -5 -18 -10 -26 -9 -13
-11 -13 -20 0 -11 18 -13 54 -3 64 8 8 33 -21 33 -38z m-50 -161 l0 -84 -35
-7 c-24 -4 -46 -19 -69 -45 -18 -22 -37 -39 -42 -39 -5 1 -22 19 -37 42 -28
39 -30 40 -77 36 -49 -5 -85 6 -75 23 4 5 50 9 104 9 l98 0 47 51 c26 28 52
62 56 75 19 48 30 24 30 -61z m90 -80 c10 -12 9 -16 -3 -21 -23 -8 -70 -1 -74
13 -8 22 59 29 77 8z m-542 -12 c-2 -10 -18 -25 -37 -34 -30 -14 -34 -21 -38
-62 -2 -25 1 -48 6 -51 5 -4 45 -8 88 -10 l78 -4 0 -33 c0 -25 -4 -33 -15 -30
-8 3 -43 7 -77 10 -34 4 -68 12 -74 18 -8 8 -19 9 -38 2 -23 -9 -30 -6 -61 28
-46 51 -66 60 -122 55 -65 -5 -78 -24 -38 -52 24 -17 39 -21 65 -16 38 8 75
-7 75 -29 0 -22 76 -58 103 -49 25 8 108 13 120 7 4 -2 -6 -30 -23 -61 -34
-66 -36 -72 -14 -72 25 0 44 26 44 60 l0 31 44 -48 c30 -32 41 -51 35 -58 -12
-12 -145 -13 -174 -2 -19 8 -19 9 -2 18 20 12 22 40 5 57 -17 17 -24 15 -46
-8 -20 -22 -9 -29 -113 80 -23 23 -35 27 -85 28 -70 1 -93 -20 -94 -85 0 -38
-3 -43 -27 -49 -30 -8 -58 19 -47 46 16 38 16 60 0 60 -10 0 -16 9 -16 23 0
17 -2 19 -10 7 -5 -9 -5 -19 1 -26 7 -8 6 -14 -1 -19 -5 -3 -10 -11 -10 -16 0
-6 5 -7 10 -4 6 4 10 -6 9 -22 0 -15 -3 -22 -6 -15 -7 19 -27 14 -53 -13 -35
-38 -54 -33 -47 11 3 20 13 44 22 54 8 9 15 25 15 36 0 10 19 34 41 53 35 29
44 32 60 23 25 -16 28 -15 22 7 -5 20 63 81 91 81 8 0 30 9 48 20 21 13 51 20
81 20 40 0 50 4 54 19 5 21 27 27 106 30 41 1 48 -2 45 -16z m740 -33 c16 0
37 -9 47 -20 10 -11 28 -20 41 -20 13 0 31 -8 41 -18 10 -10 39 -29 64 -41 39
-18 120 -92 144 -131 3 -5 -3 -22 -14 -36 -12 -15 -21 -36 -21 -47 0 -17 -4
-19 -37 -12 -21 4 -48 8 -60 9 -12 0 -21 6 -20 11 1 6 -11 11 -28 11 -16 1
-38 2 -47 3 -10 0 -31 15 -49 32 -23 23 -37 29 -54 25 -13 -3 -25 -1 -27 4 -2
6 -17 12 -33 13 -23 2 -30 -2 -30 -18 0 -14 -6 -20 -22 -19 -18 1 -20 -3 -16
-25 2 -16 -2 -30 -12 -37 -22 -16 -104 -5 -137 18 -26 18 -29 18 -53 2 -15
-10 -31 -13 -42 -9 -10 5 -20 8 -23 7 -3 0 -33 12 -65 28 -59 28 -60 29 -80
10 -29 -26 -67 -29 -87 -6 -27 29 -22 35 33 42 63 8 147 62 207 132 l44 50
116 -1 116 -2 9 37 c9 38 9 38 37 23 16 -8 42 -15 58 -15z m-548 -40 c12 -8
12 -10 -2 -15 -26 -10 -101 -1 -106 13 -5 15 85 17 108 2z m-400 -252 c10 -23
29 -47 42 -54 12 -7 17 -13 10 -14 -7 0 -11 -4 -8 -9 7 -10 -189 -9 -200 1 -4
4 6 18 22 30 16 12 43 37 59 55 17 18 36 33 43 33 7 0 21 -19 32 -42z m1330
-24 c0 -19 -5 -24 -24 -24 -35 0 -41 17 -14 39 27 23 38 19 38 -15z m-390 10
c0 -8 -4 -12 -10 -9 -5 3 -10 10 -10 16 0 5 5 9 10 9 6 0 10 -7 10 -16z m-499
-4 c10 -6 19 -17 19 -24 0 -8 7 -16 15 -20 19 -7 19 -30 1 -45 -11 -10 -16 -9
-24 5 -6 11 -14 14 -23 8 -8 -5 -24 -10 -36 -12 -19 -2 -23 2 -23 23 0 14 5
25 10 25 6 0 16 11 22 25 13 29 13 29 39 15z m249 -54 c0 -27 -63 -29 -73 -2
-3 8 8 13 34 15 28 1 39 -2 39 -13z"/>
<path d="M4051 5941 c-12 -8 -12 -14 -2 -39 14 -34 29 -43 60 -35 27 7 27 23
0 57 -22 27 -35 31 -58 17z"/>
<path d="M1634 5336 c-3 -8 0 -25 6 -37 11 -20 13 -20 22 -5 10 18 2 56 -13
56 -5 0 -12 -6 -15 -14z"/>
<path d="M1676 5089 c-8 -40 -8 -113 0 -133 3 -9 12 -16 20 -16 16 0 18 41 8
128 -8 59 -18 67 -28 21z"/>
<path d="M1505 4961 c-7 -24 4 -51 21 -51 15 0 18 27 8 54 -8 21 -21 20 -29
-3z"/>
<path d="M3726 5122 c-3 -6 -1 -14 5 -17 15 -10 25 3 12 16 -7 7 -13 7 -17 1z"/>
<path d="M3600 4895 c0 -14 4 -25 9 -25 12 0 19 21 13 38 -8 21 -22 13 -22
-13z"/>
<path d="M3635 4810 c-8 -36 8 -61 26 -43 13 13 8 65 -8 70 -6 2 -14 -10 -18
-27z"/>
<path d="M3677 4730 c-7 -25 5 -70 18 -70 14 0 13 82 -1 87 -6 2 -14 -5 -17
-17z"/>
<path d="M5560 4815 c0 -8 5 -15 10 -15 6 0 10 7 10 15 0 8 -4 15 -10 15 -5 0
-10 -7 -10 -15z"/>
<path d="M3707 2302 c-10 -10 -17 -28 -17 -40 0 -25 37 -68 67 -77 18 -5 22
-1 28 35 6 33 3 45 -17 69 -27 35 -39 37 -61 13z"/>
<path d="M3435 750 c-7 -12 23 -110 34 -110 21 0 29 24 16 49 -7 15 -13 36
-12 46 2 21 -27 33 -38 15z"/>
<path d="M4260 710 c-13 -8 -12 -11 5 -24 11 -9 27 -15 35 -14 8 2 21 -1 28
-5 17 -11 15 4 -4 31 -16 23 -39 28 -64 12z"/>
<path d="M4085 660 c-3 -5 1 -10 10 -10 9 0 13 5 10 10 -3 6 -8 10 -10 10 -2
0 -7 -4 -10 -10z"/>
<path d="M4236 657 c-22 -16 -18 -49 7 -53 11 -1 16 0 13 3 -3 3 -1 13 4 22
13 26 -2 44 -24 28z"/>
<path d="M4339 637 c-7 -17 -17 -35 -22 -38 -5 -4 -6 -12 -2 -18 5 -9 10 -9
20 -1 10 8 32 9 75 2 66 -10 72 -7 63 26 -4 17 -13 22 -39 22 -18 0 -36 4 -39
10 -3 5 -14 14 -24 20 -16 8 -21 4 -32 -23z"/>
<path d="M3988 603 c-54 -5 -67 -24 -37 -54 17 -17 28 -19 64 -13 41 6 47 4
72 -25 l27 -31 33 32 c40 39 42 52 7 45 -17 -3 -33 2 -44 13 -22 22 -55 41
-67 38 -4 -1 -29 -3 -55 -5z"/>
<path d="M4565 553 c-47 -12 -34 -63 16 -63 22 0 32 6 41 25 6 14 9 27 7 29
-9 8 -45 13 -64 9z"/>
<path d="M4490 490 c0 -5 5 -10 11 -10 5 0 7 5 4 10 -3 6 -8 10 -11 10 -2 0
-4 -4 -4 -10z"/>
<path d="M4525 470 c3 -5 10 -10 16 -10 5 0 9 5 9 10 0 6 -7 10 -16 10 -8 0
-12 -4 -9 -10z"/>
<path d="M3680 7686 c-44 -21 -76 -42 -79 -52 -3 -15 5 -16 78 -10 l81 6 0
-27 c0 -27 45 -103 61 -103 14 0 10 23 -6 44 -33 44 -8 82 30 46 29 -27 45
-19 45 21 0 17 5 39 11 51 14 26 12 27 -52 38 -30 5 -63 12 -74 15 -12 3 -52
-9 -95 -29z"/>
<path d="M1324 7672 c-17 -15 -34 -35 -37 -44 -4 -10 -13 -18 -21 -18 -9 0
-20 -9 -26 -20 -6 -11 -18 -20 -28 -20 -9 0 -28 -9 -42 -20 -32 -25 -51 -25
-83 0 -20 16 -40 20 -94 20 -65 0 -70 -2 -91 -30 -25 -33 -21 -50 18 -85 12
-11 26 -30 31 -42 5 -13 15 -23 24 -23 21 0 19 40 -5 70 -24 30 -25 56 -4 64
27 10 78 6 104 -9 14 -8 37 -19 52 -25 14 -6 29 -17 32 -25 2 -7 29 -20 60
-29 46 -14 62 -14 102 -4 31 9 50 20 57 35 7 15 19 23 36 23 31 0 97 58 83 72
-9 9 -87 -27 -122 -56 -32 -27 -95 -39 -134 -26 -20 6 -36 18 -36 26 0 8 4 14
9 14 5 0 33 23 62 50 30 28 61 57 69 64 8 8 30 17 47 21 38 8 52 23 32 36 -26
16 -64 8 -95 -19z"/>
<path d="M3730 7477 c0 -8 7 -18 16 -21 11 -4 14 -1 12 11 -4 21 -28 30 -28
10z"/>
<path d="M3685 7429 c-10 -15 3 -25 16 -12 7 7 7 13 1 17 -6 3 -14 1 -17 -5z"/>
<path d="M3640 7376 c0 -22 17 -28 24 -10 9 22 8 24 -9 24 -8 0 -15 -6 -15
-14z"/>
<path d="M3770 7341 c0 -10 7 -21 15 -25 8 -3 15 -12 15 -20 0 -20 26 -27 40
-11 10 12 7 17 -13 24 -14 6 -28 19 -32 30 -8 26 -25 27 -25 2z"/>
<path d="M3600 7295 c0 -8 5 -15 10 -15 6 0 10 7 10 15 0 8 -4 15 -10 15 -5 0
-10 -7 -10 -15z"/>
<path d="M1320 7262 c0 -19 27 -32 70 -32 43 0 70 13 70 32 0 4 -31 8 -70 8
-38 0 -70 -4 -70 -8z"/>
<path d="M3882 7263 c-6 -3 -10 -9 -6 -14 7 -12 44 -12 44 0 0 11 -21 19 -38
14z"/>
<path d="M3721 7231 c-8 -14 -6 -25 10 -45 27 -35 39 -33 39 7 0 51 -30 74
-49 38z"/>
<path d="M3960 7212 c0 -13 38 -45 48 -41 18 7 -7 49 -28 49 -11 0 -20 -4 -20
-8z"/>
<path d="M3635 7190 c-7 -21 9 -50 26 -50 10 0 12 31 3 54 -8 22 -21 20 -29
-4z"/>
<path d="M4070 7120 c0 -5 5 -10 10 -10 6 0 10 5 10 10 0 6 -4 10 -10 10 -5 0
-10 -4 -10 -10z"/>
<path d="M2978 6340 c-32 -31 -34 -42 -14 -59 12 -10 18 -7 30 17 9 17 27 33
41 36 32 8 28 30 -6 32 -14 1 -35 -9 -51 -26z"/>
<path d="M5044 6336 c-3 -14 -3 -30 2 -37 11 -18 33 17 27 41 -7 27 -21 25
-29 -4z"/>
<path d="M4998 6278 c-7 -19 2 -38 17 -38 12 0 25 21 25 41 0 14 -37 11 -42
-3z"/>
<path d="M1721 2591 c-24 -43 -6 -191 22 -191 9 0 11 -45 9 -165 -3 -144 -2
-165 12 -165 8 0 20 9 26 19 15 29 11 262 -5 281 -21 24 -35 90 -35 162 0 70
-12 93 -29 59z"/>
<path d="M5851 2367 c-10 -135 -7 -194 11 -214 10 -11 21 -33 24 -51 14 -67
164 -178 222 -163 44 12 36 28 -18 35 -35 5 -50 11 -50 22 0 8 -13 20 -30 25
-16 6 -32 19 -35 30 -4 10 -13 19 -20 19 -8 0 -19 16 -24 36 -5 20 -17 41 -26
48 -13 9 -17 35 -21 111 -6 117 -12 165 -22 165 -4 0 -9 -28 -11 -63z"/>
<path d="M6617 2284 c-4 -4 -7 -14 -7 -22 0 -18 -129 -152 -147 -152 -7 0 -20
-11 -29 -25 -10 -16 -26 -25 -43 -25 -14 0 -33 -5 -41 -10 -13 -9 -13 -11 0
-20 24 -16 60 -12 87 10 14 11 32 20 41 20 8 0 24 9 36 20 61 56 97 96 102
114 4 12 15 27 26 34 22 16 21 55 -2 60 -9 1 -19 0 -23 -4z"/>
<path d="M6577 2056 c-64 -69 -108 -108 -131 -116 -19 -6 -37 -17 -40 -25 -3
-8 -14 -15 -24 -15 -10 0 -33 -11 -52 -25 -19 -14 -42 -25 -51 -25 -9 0 -19
-6 -22 -14 -3 -7 -18 -17 -34 -21 -15 -3 -36 -15 -46 -26 -10 -10 -26 -19 -37
-19 -10 0 -21 -4 -25 -9 -11 -19 -96 -71 -116 -71 -10 0 -29 -11 -40 -24 -12
-13 -31 -27 -43 -30 -21 -7 -72 -63 -64 -72 3 -2 29 7 59 22 88 42 115 58 133
77 10 9 25 17 35 17 10 0 26 9 36 20 10 11 29 20 41 20 13 0 29 9 36 20 7 11
22 20 34 20 11 0 29 9 38 19 10 11 31 23 46 26 16 3 31 13 34 21 5 13 56 21
56 8 0 -3 -26 -29 -57 -58 -31 -28 -95 -87 -142 -130 -47 -43 -108 -95 -136
-116 -58 -43 -159 -151 -182 -195 -9 -16 -22 -35 -29 -43 -14 -14 -19 -44 -8
-55 9 -9 34 4 34 17 0 7 16 30 36 52 21 21 49 55 63 74 54 74 117 142 151 162
35 22 126 93 145 114 6 6 59 55 118 108 112 102 137 112 137 56 0 -16 4 -30 8
-30 18 0 32 26 32 60 0 19 9 52 20 73 11 20 20 45 20 56 0 10 11 30 25 45 14
15 25 37 25 50 0 13 7 29 15 36 15 13 21 50 7 50 -4 0 -51 -47 -105 -104z"/>
<path d="M1714 2045 c-4 -8 -3 -22 0 -31 5 -13 9 -14 21 -4 8 7 15 21 15 31 0
23 -28 25 -36 4z"/>
<path d="M950 2007 c0 -23 11 -47 22 -47 14 0 5 53 -9 58 -7 2 -13 -3 -13 -11z"/>
<path d="M990 1926 c0 -15 8 -30 21 -36 19 -11 20 -9 17 22 -4 41 -38 54 -38
14z"/>
<path d="M6491 1762 c-13 -24 -15 -271 -3 -257 17 20 36 122 35 189 -1 74 -14
101 -32 68z"/>
<path d="M1482 1713 c-10 -4 -10 -8 -1 -19 8 -9 33 -14 75 -14 52 0 65 -3 77
-21 10 -13 30 -23 56 -26 22 -3 48 -14 57 -24 9 -11 25 -19 34 -19 9 0 27 -9
40 -20 13 -11 28 -20 33 -20 6 0 21 -10 34 -22 16 -15 26 -19 34 -11 14 14
-45 83 -71 83 -10 0 -20 6 -23 14 -3 8 -21 17 -39 21 -18 4 -39 16 -46 26 -9
13 -25 19 -51 19 -25 0 -44 7 -56 20 -15 16 -30 20 -79 19 -34 0 -67 -3 -74
-6z"/>
<path d="M2054 1524 c-4 -14 -4 -62 0 -105 l6 -79 -25 0 c-14 0 -40 7 -56 16
-42 21 -55 13 -27 -17 13 -15 30 -37 38 -50 8 -13 27 -35 43 -50 24 -24 27
-35 28 -96 l2 -68 7 85 c11 121 11 378 0 385 -5 3 -12 -6 -16 -21z"/>
<path d="M6486 1441 c-8 -12 2 -159 11 -175 12 -19 23 23 23 85 0 66 -19 115
-34 90z"/>
<path d="M6236 1421 c-4 -7 -5 -15 -2 -18 9 -9 19 4 14 18 -4 11 -6 11 -12 0z"/>
<path d="M5804 1195 c-8 -33 8 -52 25 -31 15 18 11 48 -6 53 -7 3 -15 -7 -19
-22z"/>
<path d="M1932 1148 c2 -13 8 -23 13 -23 6 0 11 10 13 23 2 15 -2 22 -13 22
-11 0 -15 -7 -13 -22z"/>
<path d="M5773 1138 c-26 -33 -24 -78 2 -78 16 0 25 22 25 61 0 31 -11 37 -27
17z"/>
<path d="M5730 1009 c0 -17 4 -28 10 -24 6 3 10 17 10 31 0 13 -4 24 -10 24
-5 0 -10 -14 -10 -31z"/>
<path d="M662 813 c3 -50 21 -66 26 -24 5 31 -6 71 -19 71 -6 0 -9 -19 -7 -47z"/>
</g>
</svg>
